<svg xmlns="http://www.w3.org/2000/svg" width="298.232" height="291" viewBox="0 0 298.232 291">
  <g id="Group_698" data-name="Group 698" transform="translate(-16059.232 -14400)">
    <rect id="Rectangle_2987" data-name="Rectangle 2987" width="5" height="289" rx="2.5" transform="translate(16107.232 14400)"/>
    <g id="Group_697" data-name="Group 697">
      <rect id="Rectangle_2974" data-name="Rectangle 2974" width="5" height="61.733" transform="translate(16150.859 14400.247) rotate(45)"/>
      <rect id="Rectangle_2966" data-name="Rectangle 2966" width="5" height="298.232" rx="2.5" transform="translate(16357.465 14686) rotate(90)"/>
      <rect id="Rectangle_2988" data-name="Rectangle 2988" width="187" height="5" rx="2.5" transform="translate(16107.232 14400)"/>
      <rect id="Rectangle_2989" data-name="Rectangle 2989" width="5" height="49" rx="2.5" transform="translate(16289.232 14401)"/>
      <g id="Group_696" data-name="Group 696">
        <rect id="Rectangle_2970" data-name="Rectangle 2970" width="5" height="56" rx="2.5" transform="translate(16289.197 14498.247) rotate(45)"/>
        <rect id="Rectangle_2967" data-name="Rectangle 2967" width="5" height="56" rx="2.5" transform="translate(16291.197 14565.247) rotate(45)"/>
        <rect id="Rectangle_2971" data-name="Rectangle 2971" width="5" height="56" rx="2.5" transform="translate(16290.732 14501.782) rotate(-45)"/>
        <g id="Ellipse_32" data-name="Ellipse 32" transform="translate(16263.732 14445.247)" fill="none" stroke="#000" stroke-width="5">
          <circle cx="27.5" cy="27.5" r="27.5" stroke="none"/>
          <circle cx="27.5" cy="27.5" r="25" fill="none"/>
        </g>
        <rect id="Rectangle_2990" data-name="Rectangle 2990" width="5" height="73" rx="2.5" transform="translate(16289.232 14498)"/>
      </g>
    </g>
  </g>
</svg>
