<svg xmlns="http://www.w3.org/2000/svg" version="1.1" xmlns:xlink="http://www.w3.org/1999/xlink" xmlns:svgjs="http://svgjs.dev/svgjs" viewBox="0 0 9.661448511872647 9.661448511872647"><g transform="matrix(1,0,0,1,3.29445156957051,2.985778540516936)"><rect width="9.661448511872647" height="9.661448511872647" x="-3.2944515695705103" y="-2.9857785405169364" fill="#ffffff"></rect><g><path d=" M -1.9243992077097802 0.7163515625956999 L -1.7730783413159272 0.754272472313344 L -1.8416276781132073 1.0278140384868475 L -1.7213469894411704 1.0579563000572825 L -1.6707857764843113 0.8561951448654788 L -1.5262549489671056 0.8924144753009209 L -1.5768161619239647 1.0941756304927248 L -1.3090946290733019 1.161266470762403 L -1.3567388489749572 1.3513875593085258 L -2.0405927644087156 1.180014217315326 L -1.9243992077097802 0.7163515625956999 M -1.041861448450963 0.458312850016194 L -1.337036612171664 0.46677587089867395 L -1.3464587095033214 0.4855435047898382 L -1.1140975279936691 0.6021980431817863 L -1.2020371030891377 0.7773626261659856 L -1.832093383721079 0.4610493586032033 L -1.6934539515552638 0.18489703134750135 Q -1.655316890927127 0.10893279893088426 -1.602481227005359 0.06944048805970349 Q -1.549645563083591 0.029948177188522607 -1.4901600361624159 0.02624384365735244 Q -1.430674509241241 0.02253951012618227 -1.373477910715788 0.05125447342266187 Q -1.3091317373746536 0.08355880713120134 -1.2781477753523687 0.1433124187157877 Q -1.2471638133300835 0.20306603030037396 -1.2607078046495683 0.2813064309840215 L -0.943602433420822 0.26259323943691004 L -1.041861448450963 0.458312850016194 M -1.4662140876659882 0.4254215503878342 L -1.4226929714197614 0.3387329557476947 Q -1.4047461193594617 0.3029850816692867 -1.4127529335165556 0.27658638990144035 Q -1.4207597476736495 0.250187698133594 -1.452932834344217 0.2340355312793242 Q -1.4833185273108636 0.2187807070280694 -1.509943377604991 0.22835240211385743 Q -1.5365682278991186 0.23792409719964547 -1.5540664086579108 0.27277827442609326 L -1.5975875249041378 0.35946686906623276 L -1.4662140876659882 0.4254215503878342 M -0.806418592886158 0.017327175197561717 Q -0.8962211734575479 0.048739696947956435 -0.9901595345474941 0.03046172343514883 Q -1.08409789563744 0.012183749922341225 -1.1620360994648284 -0.05667579105899606 Q -1.2399743032922168 -0.12553533204033335 -1.2696879001976464 -0.21650566873830124 Q -1.299401497103076 -0.3074760054362692 -1.2789189535896999 -0.40013379200179555 Q -1.2584364100763237 -0.49279157856732203 -1.1928874239498584 -0.5669827533645475 Q -1.1266763268524187 -0.6419233339678054 -1.0375795046695322 -0.6732922083006712 Q -0.9484826824866457 -0.7046610826335367 -0.8548753768821868 -0.6860084062177128 Q -0.7612680712777279 -0.6673557298018888 -0.6833298674503395 -0.5984961888205516 Q -0.6053916636229512 -0.5296366478392143 -0.5753470112320344 -0.43904101404426266 Q -0.5453023588411176 -0.34844538024931104 -0.5654101994514775 -0.25545653819829744 Q -0.5855180400618375 -0.16246769614728385 -0.6510670261883028 -0.08827652135005842 Q -0.7166160123147681 -0.014085346552832972 -0.806418592886158 0.017327175197561717 M -0.7457196173213628 -0.3300287436600049 Q -0.753638674579573 -0.39507133380016757 -0.8150899506742446 -0.44936443342006815 Q -0.8780400383809812 -0.5049817549819174 -0.9431880472109477 -0.5044949845117584 Q -1.008336056040914 -0.5040082140415995 -1.0579943788639938 -0.44780277858915596 Q -1.108314812658048 -0.3908479373306799 -1.100439402817367 -0.32651110557902063 Q -1.092563992976686 -0.26217427382736147 -1.0296139052699491 -0.20655695226551207 Q -0.967413223369245 -0.15160174167463714 -0.9025962700247658 -0.15171380924177985 Q -0.8377793166802866 -0.15182587680892257 -0.7874588828862324 -0.20878071806739867 Q -0.7378005600631526 -0.26498615351984217 -0.7457196173213628 -0.3300287436600049 M 0.22932691550955353 -0.7934650138085461 L 0.06442430975916008 -0.6875257358388983 L -0.36812495361274766 -0.877941425204087 L -0.15516538463294557 -0.5464535340527858 L -0.3200679903833391 -0.4405142560831381 L -0.7011250871619189 -1.0336588328894005 L -0.5362224814115254 -1.139598110859048 L -0.1009706854383512 -0.9449757223675739 L -0.3166327870194197 -1.2806703126451606 L -0.15173018126902627 -1.3866095906148084 L 0.22932691550955353 -0.7934650138085461 M 0.642705463920647 -1.686125993772682 L 0.6926920606606097 -1.5383513675801033 L 0.514604690633656 -1.4781111099704045 L 0.6905190599300637 -0.9580580985619067 L 0.5048535039445162 -0.895254425734774 L 0.32893913464810853 -1.4153074371432717 L 0.15274631111080328 -1.3557080333379314 L 0.10275971437084047 -1.5034826595305102 L 0.642705463920647 -1.686125993772682 M 1.1040297961120515 -1.6023435987564532 L 1.117614788260946 -1.4881488178410607 L 1.3410393596171484 -1.5147281503062884 L 1.3586407842274548 -1.3667714341637365 L 1.1352162128712522 -1.3401921016985088 L 1.150218769418292 -1.2140813436441187 L 1.4034332836219883 -1.2442045871047103 L 1.4219797511643915 -1.0883038862028265 L 0.9741376103570699 -1.035027090905859 L 0.8908557019660229 -1.7350907478219606 L 1.3386978427733447 -1.788367543118928 L 1.3572443103157479 -1.6324668422170445 L 1.1040297961120515 -1.6023435987564532 M 2.201770226957982 -1.0232299151042936 L 2.007107434173663 -1.0460859231855255 L 1.793833343700695 -1.4678336704621744 L 1.7478881029659734 -1.0765217298651255 L 1.5532253101816547 -1.0993777379463574 L 1.6354369719024127 -1.7995678854613817 L 1.8300997646867316 -1.7767118773801498 L 2.0427907937290564 -1.3499982425324724 L 2.0893190958944214 -1.74627607070055 L 2.28398188867874 -1.723420062619318 L 2.201770226957982 -1.0232299151042936 M 3.030564190712852 -1.4196901754102942 Q 3.0913035013718737 -1.3471420111284402 3.1030450112650896 -1.2561082978930267 Q 3.114786521158306 -1.1650745846576132 3.0761881568466096 -1.0695802587923473 Q 3.0379645339359977 -0.9750130623044142 2.9658008351806067 -0.9178934458671415 Q 2.893637136425215 -0.8607738294298688 2.7991710996685955 -0.8498803497517818 Q 2.704705062911975 -0.8389868700736949 2.6027208314053807 -0.8802084241929822 L 2.3440517351295633 -0.984761275095538 L 2.6082444228940864 -1.6383874861150758 L 2.8669135191699033 -1.53383463521252 Q 2.9698248800538307 -1.4922383396921481 3.030564190712852 -1.4196901754102942 M 2.7964194649238765 -1.0392079190760397 Q 2.8594616502641457 -1.0644206711575386 2.8916894107574067 -1.1441537976081488 Q 2.924291912651752 -1.2248140534360918 2.8966627897139614 -1.2872150275125311 Q 2.86903366677617 -1.3496160015889702 2.78930054032556 -1.3818437620822313 L 2.7262557426669383 -1.4073261773559724 L 2.5905993554743745 -1.071705342761543 L 2.653644153132997 -1.0462229274878019 Q 2.733377279583607 -1.0139951669945408 2.7964194649238765 -1.0392079190760397 M 4.328169474842536 -0.5130940397365636 L 3.844218619642789 -0.00043765408294305086 L 3.7016928727093004 -0.13498285637961022 L 3.9687239119613595 -0.4178528337118917 L 3.604978973004433 -0.22628138650949148 L 3.4857227357743708 -0.3388600251658865 L 3.6573720684846056 -0.715896504276504 L 3.3882816638912714 -0.4308450104095263 L 3.2457559169577825 -0.5653902127061935 L 3.729706772157529 -1.078046598359814 L 3.902046578398534 -0.9153567363990481 L 3.7163596118442173 -0.46080932363349725 L 4.156556840779764 -0.6750974465835711 L 4.328169474842536 -0.5130940397365636 M 4.6064341497805135 -0.09655373741281703 L 4.02096263252446 0.29619058461093273 L 3.9117741401604103 0.13342119825322143 L 4.497245657416464 -0.25932312377052835 L 4.6064341497805135 -0.09655373741281703 M 4.361477232148356 1.0157667850588776 L 4.285766844682837 0.8349797909751744 L 4.548367173970994 0.4420445964993526 L 4.184948420557835 0.5942379264045285 L 4.109238033092316 0.4134509323208253 L 4.759517782219922 0.14112530393719822 L 4.835228169685442 0.32191229802090154 L 4.568015927282905 0.7167788799320681 L 4.936046593810444 0.5626541625915473 L 5.011756981275963 0.7434411566752506 L 4.361477232148356 1.0157667850588776 M 5.113117313004294 1.211310131134642 L 4.422496373253222 1.3529707028451405 L 4.383112724947892 1.1609682855526438 L 5.073733664698964 1.0193077138421451 L 5.113117313004294 1.211310131134642" fill="#0e0904" fill-rule="nonzero"></path></g><g><path d=" M -1.2357871209522668 3.2668880928478146 Q -1.1428971980500444 3.2606661780927597 -1.0610911051043328 3.303773754653703 Q -0.9792850121586211 3.3468813312146466 -0.924124779849645 3.4326796340627785 Q -0.856526455941586 3.5378246130433326 -0.8639129982207805 3.6483797531009423 Q -0.871299540499975 3.7589348931585516 -0.9509681635923062 3.8458193595180346 L -1.052636042750027 3.687681311131281 Q -1.0269815285654258 3.6462223446469113 -1.028455136196686 3.6013995995218178 Q -1.0299287438279463 3.5565768543967247 -1.0564272867999054 3.5153600226363473 Q -1.0991494275097986 3.448908395920637 -1.1719117612332015 3.437434826679806 Q -1.2446740949566044 3.4259612574389746 -1.322060799486292 3.475713623835306 Q -1.39944750401598 3.5254659902316376 -1.4192127517954645 3.5964260845115605 Q -1.4389779995749492 3.6673861787914834 -1.396255858865056 3.7338378055071937 Q -1.369757315893097 3.775054637267571 -1.3295903559969928 3.7950011991944987 Q -1.2894233961008887 3.8149477611214264 -1.2410558450831797 3.8088175075745228 L -1.139387965925459 3.966955555961276 Q -1.2515037844936585 4.003370432410093 -1.3547297601020067 3.9639287291037615 Q -1.457955735710355 3.92448702579743 -1.525554059618414 3.819342046816876 Q -1.5807142919273902 3.7335437439687436 -1.5859748401752585 3.6412245876027334 Q -1.5912353884231267 3.548905431236723 -1.547436838650629 3.4672495249113013 Q -1.5036382888781312 3.38559361858588 -1.4161576663663102 3.329351813094375 Q -1.3286770438544893 3.27311000760287 -1.2357871209522668 3.2668880928478146 M -0.20947064051386288 4.225374289624949 L -0.680799315310338 4.745617771385748 L -0.8075252916366864 4.630806940345582 L -0.6134882730951177 4.416632629478244 L -0.8106175696027708 4.238038003415761 L -1.0046545881443396 4.452212314283099 L -1.131380564470688 4.337401483242933 L -0.6600518896742129 3.817158001482133 L -0.5333259133478645 3.9319688325223003 L -0.7179632147282501 4.135767917257656 L -0.5208339182205969 4.314362543320138 L -0.3361966168402113 4.110563458584783 L -0.20947064051386288 4.225374289624949 M 0.03856220308834879 5.026703838269672 L -0.19418435984372961 4.9063999004982755 L -0.2884326191063268 4.997269398273768 L -0.4474464922545789 4.915077013307814 L 0.10053439057087254 4.408088895046805 L 0.27642683126000056 4.49900561137786 L 0.17972554373796845 5.239254799821577 L 0.018934979269624175 5.156144064185612 L 0.03856220308834879 5.026703838269672 M 0.060086138267024025 4.889238496403352 L 0.10080812693938301 4.62098540762604 L -0.09359766092095145 4.809801163447429 L 0.060086138267024025 4.889238496403352 M 0.6247362159544477 5.230600627447428 L 0.8411249203632793 5.288496470167501 L 0.8070077273318084 5.416011242408419 L 0.4254294316108776 5.313918126897578 L 0.6068708672782462 4.635771383616329 L 0.7720604585903454 4.679968656407098 L 0.6247362159544477 5.230600627447428 M 1.214885190456656 5.336402144719752 L 1.437974090463357 5.356584877284999 L 1.4260806944874076 5.488047979074662 L 1.0326873217077344 5.452457892631481 L 1.0959385639434642 4.75331321493191 L 1.2662430367164368 4.768720568809844 L 1.214885190456656 5.336402144719752 M 1.7810268659402504 4.9086263005496225 L 1.7940616667952225 5.050026774264074 L 2.022094825109373 5.029005863026126 L 2.0342116822421636 5.160448556901531 L 1.8061785239280135 5.181469468139479 L 1.820314857249603 5.3348192776607855 L 2.078221355080891 5.311044535256294 L 2.0907971840747726 5.447466119051223 L 1.6626126509958004 5.486937699105011 L 1.5981730016986846 4.787901554403992 L 2.026357534777657 4.748429974350203 L 2.0389333637715383 4.884851558145131 L 1.7810268659402504 4.9086263005496225 M 2.982356712098012 5.198156778311603 L 2.820094815149104 5.252120440145673 L 2.412064592333079 4.931501761231445 L 2.5487094202520995 5.34237545350558 L 2.3864475233031914 5.396339115339651 L 2.164912490510692 4.730211327865186 L 2.3271743874596 4.676247666031116 L 2.7358357642152042 4.998764144909659 L 2.5985597823566042 4.585992652671208 L 2.7608216793055123 4.532028990837138 L 2.982356712098012 5.198156778311603 M 3.410349859558143 4.391266177703709 Q 3.375127021003367 4.372682538551375 3.3353271376148776 4.376980128836948 Q 3.2955272542263883 4.381277719122521 3.2555879461949395 4.407901987637713 Q 3.1865262260572256 4.453939785278566 3.1751524184010904 4.527021154309265 Q 3.1637786107449557 4.600102523339964 3.2142537864716734 4.675820794816253 Q 3.2680569957627905 4.756531479796473 3.3419702521321453 4.772758942102023 Q 3.4158835085015 4.788986404407572 3.4924338488951108 4.737956556420121 Q 3.544854190686387 4.703012203993931 3.5632996762464266 4.6522577552977395 Q 3.5817451618064657 4.601503306601548 3.565106204508913 4.540485726347573 L 3.384547249450071 4.66084960692667 L 3.314658544597692 4.556008923344116 L 3.624188181841421 4.3496708423513795 L 3.7123810712979943 4.481969800205554 Q 3.732070786555802 4.545760983868083 3.7247186251579816 4.616762362184144 Q 3.7173664637601616 4.687763740500204 3.6779804964125593 4.754881141940468 Q 3.6385945290649575 4.821998543380733 3.5653724643406344 4.870809702325252 Q 3.4788372969391617 4.928495617441501 3.385786092314072 4.93584227095311 Q 3.2927348876889817 4.943188924464718 3.2099472988314512 4.901028930025007 Q 3.1271597099739203 4.8588689355852965 3.069473794857671 4.772333768183824 Q 3.011787879741422 4.685798600782351 3.0044412262298135 4.592747396157261 Q 2.9970945727182046 4.499696191532172 3.039254567157916 4.41690860267464 Q 3.0814145615976267 4.33412101381711 3.1679497289990994 4.27643509870086 Q 3.272790412581653 4.206546393848482 3.378599381834716 4.209323447251696 Q 3.4844083510877795 4.21210050065491 3.567610884931973 4.286433120425142 L 3.410349859558143 4.391266177703709 M 3.755143355881355 3.971599492621203 L 3.858851702546836 4.068597321627385 L 4.015277778901876 3.90134935411756 L 4.111682720872604 3.991516350095137 L 3.9552566445175645 4.158764317604962 L 4.0677290768167484 4.263959146245469 L 4.2446476522576 4.074800964651388 L 4.3447042965757054 4.168383377143267 L 4.050978476345718 4.48242977901761 L 3.538279466774116 4.002905300409585 L 3.8320052870041024 3.6888588985352424 L 3.9320619313222074 3.7824413110271218 L 3.755143355881355 3.971599492621203 M 4.56239918813731 3.836243686667215 Q 4.509348603192445 3.8753798008970106 4.448517900216059 3.8811135235445318 Q 4.387687197239672 3.8868472461920525 4.327689146279045 3.8527117239179467 L 4.422235458822149 3.697196468124498 Q 4.4576380974271865 3.7140384745311312 4.487103086065962 3.705034894992034 Q 4.516568074704737 3.6960313154529367 4.5357890283536095 3.664415576637785 Q 4.555529467236235 3.631945358395197 4.552004752398669 3.6040558194009105 Q 4.548480037561103 3.5761662804066234 4.52199117531057 3.5600622381602705 Q 4.4997747101972205 3.5465556220826846 4.476157568340117 3.5526777630890174 Q 4.452540426483012 3.55879990409535 4.429894279320501 3.5748747919236954 Q 4.4072481321579895 3.5909496797520406 4.370869614187472 3.623837419569011 Q 4.3176005503160795 3.6710328307258755 4.27731861728852 3.696866256196827 Q 4.237036684260961 3.7226996816677778 4.185898985489709 3.7278896493344247 Q 4.134761286718459 3.733079617001071 4.078365644507648 3.6987935915733523 Q 3.994626660618868 3.647884038665527 3.984086503992626 3.5583845688442244 Q 3.973546347366384 3.4688850990229216 4.032767664014262 3.371474444295157 Q 4.093027951129646 3.272354830712519 4.17733501094886 3.2405182218378346 Q 4.261642070768072 3.20868161296315 4.3488329602530555 3.2558382539675454 L 4.252728192008692 3.413916948043304 Q 4.222636921008343 3.3979634089505644 4.1940264117970045 3.4074864737234147 Q 4.165415902585666 3.4170095384962655 4.146714434170547 3.4477707978839804 Q 4.130610391924194 3.4742596601345133 4.134839083035583 3.4990662756127366 Q 4.139067774146973 3.5238728910909605 4.165556636397506 3.5399769333373134 Q 4.194608936930348 3.557639431284926 4.227467573531748 3.5401663090482702 Q 4.260326210133148 3.522693186811614 4.314449753431978 3.476017260888503 Q 4.369427776158243 3.429860820199145 4.409449966568927 3.404454634441912 Q 4.44947215697961 3.3790484486846792 4.4997553763234235 3.3733389957842794 Q 4.550038595667238 3.3676295428838796 4.6038707995957395 3.4003571126103385 Q 4.655139565241931 3.4315262266355373 4.681164757556845 3.483042625626264 Q 4.707189949871759 3.534559024616991 4.701839709709726 3.5991839031871558 Q 4.696489469547693 3.6638087817573206 4.655450136081181 3.731312656524807 Q 4.615449773082176 3.7971075724374197 4.56239918813731 3.836243686667215" fill="#8c1627" fill-rule="nonzero"></path></g><g clip-path="url(#SvgjsClipPath1029)"><g clip-path="url(#SvgjsClipPath1000ee2a1ce7-d907-458a-af8a-fb2e682c4288)"><path d=" M 1.5977235938204464 3.689891430838776 L 1.5977235938204464 1.844950836328343 L 2.949643557822363 1.0643911680216906 L 2.949643557822363 2.909342004350033 L 3.0725453727316276 2.8383764480578417 L 3.0725453727316276 0.8515149827809343 L 1.4748217789111813 1.773985280036151 L 1.4748217789111813 3.4770152455980203 L 0.12290181490926486 2.6964658191092767 L 0.12290181490926486 0.9934358535474084 L 1.7206254087297117 0.0709553144742824 L 1.5977235938204464 0 L -2.7289684936097093e-16 0.9224702972552168 L -2.7289684936097093e-16 2.7674211335835595 L 1.5977235938204464 3.689891430838776 Z" fill="#313131" transform="matrix(1,0,0,1,0,0)" fill-rule="nonzero"></path></g><g clip-path="url(#SvgjsClipPath1000ee2a1ce7-d907-458a-af8a-fb2e682c4288)"><path d=" M 2.212232668366772 3.3350943748315456 L 2.335134483276037 3.2641390603572633 L 2.335134483276037 2.1287823360433813 L 2.212232668366772 2.199747892335573 L 2.212232668366772 3.3350943748315456 Z" fill="#313131" transform="matrix(1,0,0,1,0,0)" fill-rule="nonzero"></path></g><g clip-path="url(#SvgjsClipPath1000ee2a1ce7-d907-458a-af8a-fb2e682c4288)"><path d=" M 1.9664290385482417 3.4770152455980203 L 2.089330853457507 3.406059931123737 L 2.089330853457507 2.1287823360433813 L 2.458036298185302 1.915906150802625 L 2.458036298185302 3.193173504065072 L 2.5809381130945677 3.1222181895907894 L 2.5809381130945677 1.7030299655618686 L 1.9664290385482417 2.057827021569099 L 1.9664290385482417 3.4770152455980203 Z" fill="#313131" transform="matrix(1,0,0,1,0,0)" fill-rule="nonzero"></path></g><g clip-path="url(#SvgjsClipPath1000ee2a1ce7-d907-458a-af8a-fb2e682c4288)"><path d=" M 0.7374108894555905 2.3416585212841374 L 0.8603127043648557 2.412624077576329 L 0.8603127043648557 1.4191882240289209 L 2.458036298185302 0.4967179267737042 L 2.335134483276037 0.42575237048151265 L 0.7374108894555905 1.3482329095546384 L 0.7374108894555905 2.3416585212841374 Z" fill="#313131" transform="matrix(1,0,0,1,0,0)" fill-rule="nonzero"></path></g><g clip-path="url(#SvgjsClipPath1000ee2a1ce7-d907-458a-af8a-fb2e682c4288)"><path d=" M 1.7206254087297117 3.6189361163644933 L 1.8435272236389766 3.547970560072302 L 1.8435272236389766 1.9868614652769074 L 2.7038399280038323 1.4901435385032034 L 2.7038399280038323 3.0512628751165076 L 2.8267417429130974 2.9802973188243156 L 2.8267417429130974 1.277267353262447 L 1.7206254087297117 1.915906150802625 L 1.7206254087297117 3.6189361163644933 Z" fill="#313131" transform="matrix(1,0,0,1,0,0)" fill-rule="nonzero"></path></g><g clip-path="url(#SvgjsClipPath1000ee2a1ce7-d907-458a-af8a-fb2e682c4288)"><path d=" M 0.49160725963706026 2.4835793920506113 L 1.106116334183386 2.8383764480578417 L 1.106116334183386 1.5611090947953947 L 2.7038399280038323 0.6386387975401782 L 2.5809381130945677 0.5676732412479866 L 0.9832145192741207 1.4901435385032034 L 0.9832145192741207 2.625500262817085 L 0.6145090745463254 2.412624077576329 L 0.6145090745463254 1.277267353262447 L 2.212232668366772 0.3547970560072302 L 2.089330853457507 0.28384174153294783 L 0.49160725963706026 1.2063120387881645 L 0.49160725963706026 2.4835793920506113 Z" fill="#313131" transform="matrix(1,0,0,1,0,0)" fill-rule="nonzero"></path></g><g clip-path="url(#SvgjsClipPath1000ee2a1ce7-d907-458a-af8a-fb2e682c4288)"><path d=" M 0.24580362981853 2.625500262817085 L 1.3519199640019162 3.2641390603572633 L 1.3519199640019162 1.7030299655618686 L 2.949643557822363 0.7805494264887428 L 2.8267417429130974 0.7095941120144604 L 1.229018149092651 1.6320644092696772 L 1.229018149092651 3.0512628751165076 L 0.3687054447277951 2.554544948342803 L 0.3687054447277951 1.1353464824959731 L 1.9664290385482417 0.21287618524075633 L 1.8435272236389766 0.14192087076647392 L 0.24580362981853 1.0643911680216906 L 0.24580362981853 2.625500262817085 Z" fill="#313131" transform="matrix(1,0,0,1,0,0)" fill-rule="nonzero"></path></g></g><g><path d=" M -1.1362531193655034 1.8449457154193876 A 2.672525805731317 2.672525805731317 0 0 1 4.208798492097131 1.8449457154193876 A 2.672525805731317 2.672525805731317 0 0 1 -1.1362531193655032 1.8449457154193876 Z M -1.0862531193655036 1.8449457154193878 A 2.622525805731317 2.622525805731317 0 0 0 4.158798492097131 1.8449457154193878 A 2.622525805731317 2.622525805731317 0 0 0 -1.0862531193655034 1.8449457154193878 Z" fill="#0e0904" fill-rule="nonzero"></path></g><g><path d=" M -2.5143308602477896 1.8449457154193882 A 4.050603546613604 4.050603546613604 0 0 1 5.586876232979418 1.8449457154193882 A 4.050603546613604 4.050603546613604 0 0 1 -2.5143308602477896 1.8449457154193882 Z M -2.46433086024779 1.8449457154193873 A 4.000603546613603 4.000603546613603 0 0 0 5.536876232979417 1.8449457154193873 A 4.000603546613603 4.000603546613603 0 0 0 -2.46433086024779 1.8449457154193873 Z" fill="#0e0904" fill-rule="nonzero"></path></g><g transform="matrix(-0.20645196202929808,-0.9784567376099228,0.9784567376099228,-0.20645196202929808,-4.342851933903474,1.132088644974563)"><g clip-path="url(#SvgjsClipPath1030)"><path d=" M -1.7123526689217616 2.524786954899141 C -1.602317390301072 2.524786954899141 -1.5111723358183133 2.433836896278451 -1.5111723358183133 2.3236066217956926 C -1.5111723358183133 2.2135717863474165 -1.602317390301072 2.122426953450865 -1.7125476647838305 2.122426953450865 C -1.8225831649907271 2.122426953450865 -1.9135330020252097 2.2135717863474165 -1.9135330020252097 2.3236066217956926 C -1.9135330020252097 2.433836896278451 -1.822388390714865 2.524786954899141 -1.7123526689217616 2.524786954899141 Z M -1.7123526689217616 2.485253759726727 C -1.8019393076114167 2.485253759726727 -1.8738032598872787 2.4131939252439683 -1.8738032598872787 2.3236066217956926 C -1.8738032598872787 2.234021534209486 -1.8021340818872789 2.162156695588796 -1.7125476647838305 2.162156695588796 C -1.6229603613355548 2.162156695588796 -1.550902742714865 2.234021534209486 -1.550707746852796 2.3236066217956926 C -1.550707746852796 2.4131939252439683 -1.6227653654734857 2.485253759726727 -1.7123526689217616 2.485253759726727 Z" fill="#0e0904" transform="matrix(1,0,0,1,0,0)" fill-rule="nonzero"></path></g></g><g transform="matrix(0.20645196202929808,-0.9784567376099228,-0.9784567376099228,-0.20645196202929808,6.07402714964061,7.489367378677678)"><g clip-path="url(#SvgjsClipPath1031)"><path d=" M 4.784898041653389 2.524786954899141 C 4.894933320274079 2.524786954899141 4.986078374756838 2.433836896278451 4.986078374756838 2.3236066217956926 C 4.986078374756838 2.2135717863474165 4.894933320274079 2.122426953450865 4.78470304579132 2.122426953450865 C 4.674667545584424 2.122426953450865 4.583717708549941 2.2135717863474165 4.583717708549941 2.3236066217956926 C 4.583717708549941 2.433836896278451 4.674862319860286 2.524786954899141 4.784898041653389 2.524786954899141 Z M 4.784898041653389 2.485253759726727 C 4.695311402963735 2.485253759726727 4.623447450687872 2.4131939252439683 4.623447450687872 2.3236066217956926 C 4.623447450687872 2.234021534209486 4.695116628687872 2.162156695588796 4.78470304579132 2.162156695588796 C 4.874290349239597 2.162156695588796 4.9463479678602855 2.234021534209486 4.946542963722354 2.3236066217956926 C 4.946542963722354 2.4131939252439683 4.874485345101665 2.485253759726727 4.784898041653389 2.485253759726727 Z" fill="#0e0904" transform="matrix(1,0,0,1,0,0)" fill-rule="nonzero"></path></g></g></g><defs><clipPath id="SvgjsClipPath1029"><path d=" M 0 0 h 3.0725453727316276 v 3.6898914308387756 h -3.0725453727316276 Z"></path></clipPath><clipPath id="SvgjsClipPath1000ee2a1ce7-d907-458a-af8a-fb2e682c4288"><path d=" M -2.7289684936097093e-16 0 L 3.0725453727316276 0 L 3.0725453727316276 3.6898914308387756 L -5.457936987219419e-16 3.6898914308387756 Z"></path></clipPath><clipPath id="SvgjsClipPath1030"><path d=" M -2.022573358576934 2.005814331450865 h 0.6204413793103447 v 0.6425999999999998 h -0.6204413793103447 Z"></path></clipPath><clipPath id="SvgjsClipPath1031"><path d=" M 4.474677351998217 2.005814331450865 h 0.6204413793103447 v 0.6425999999999998 h -0.6204413793103447 Z"></path></clipPath></defs></svg>